<svg width="200" height="200" viewBox="0 0 200 200" fill="none" xmlns="http://www.w3.org/2000/svg">
<path d="M24.5115 175.997C26.2787 175.496 27.4271 175.206 28.5547 174.846C37.054 172.143 45.5293 169.362 54.0674 166.788C55.2754 166.423 57.0271 166.617 58.1074 167.261C77.82 179.018 98.8514 182.411 121.194 177.251C163.545 167.471 191.42 124.604 183.005 82.34C174.153 37.8781 132.136 9.13032 87.2564 16.8254C28.7634 26.854 -0.0764707 94.0725 33.128 143.108C34.4378 145.042 34.5641 146.621 33.8221 148.731C30.7114 157.574 27.7492 166.47 24.5115 175.997ZM0 200C2.44253 192.785 4.75609 185.958 7.06641 179.128C10.3398 169.449 13.6675 159.787 16.8125 150.067C17.2053 148.852 17.0575 147.082 16.438 145.974C-16.2397 87.4947 16.2747 15.9278 81.8665 2.09113C135.85 -9.29783 189.466 27.0634 198.592 81.25C207.481 134.024 171.873 184.282 119.123 193.418C97.2319 197.211 76.3651 194.116 56.576 184.007C54.8574 183.129 53.3993 183.09 51.5905 183.67C35.4092 188.871 19.1974 193.981 2.99338 199.114C2.13729 199.384 1.27149 199.623 0 200Z" fill="white"/>
<path d="M53.7311 74.9507C54.046 68.22 56.5281 62.5015 60.9245 57.4596C64.5711 53.2758 69.3706 52.5901 74.3607 52.9006C75.6348 52.9803 77.3139 54.616 77.9211 55.9432C80.9009 62.4432 83.6648 69.0476 86.2875 75.7005C86.7289 76.8204 86.5215 78.6155 85.8877 79.6575C84.3103 82.2556 82.4886 84.7623 80.433 87C78.5614 89.0388 78.2497 90.751 79.7344 93.1702C87.6446 106.049 98.4866 115.386 112.585 120.929C114.625 121.73 116.171 121.395 117.525 119.728C119.87 116.839 122.35 114.056 124.555 111.066C126.008 109.097 127.71 108.401 129.84 109.384C136.588 112.496 143.337 115.62 149.931 119.037C150.93 119.555 151.625 121.679 151.579 123.029C151.244 132.98 144.297 140.539 134.499 142.606C129.007 143.764 123.911 143.032 118.607 141.632C95.5385 135.543 78.1901 121.785 64.8479 102.394C60.3983 95.9257 56.0803 89.4406 54.5405 81.5732C54.116 79.397 53.9929 77.1606 53.7311 74.9507Z" fill="white"/>
</svg>
