<svg width="200" height="200" viewBox="0 0 200 200" fill="none" xmlns="http://www.w3.org/2000/svg">
<path d="M24.5121 175.997C26.2787 175.496 27.4271 175.206 28.5553 174.846C37.054 172.143 45.5299 169.362 54.0674 166.788C55.2754 166.423 57.0271 166.617 58.1074 167.261C77.82 179.018 98.8514 182.411 121.193 177.251C163.545 167.471 191.42 124.604 183.005 82.34C174.153 37.8781 132.136 9.13032 87.2564 16.8254C28.7627 26.854 -0.0764707 94.0725 33.1274 143.108C34.4378 145.042 34.5641 146.621 33.8227 148.731C30.7121 157.574 27.7485 166.47 24.5121 175.997ZM0 200C2.44188 192.785 4.75609 185.958 7.06577 179.128C10.3404 169.449 13.6669 159.787 16.8125 150.067C17.2059 148.852 17.0582 147.082 16.4373 145.974C-16.2403 87.4947 16.2747 15.9278 81.8665 2.09113C135.849 -9.29783 189.466 27.0634 198.592 81.25C207.481 134.024 171.873 184.282 119.123 193.418C97.2319 197.211 76.3651 194.116 56.576 184.007C54.8574 183.129 53.3993 183.09 51.5905 183.67C35.4085 188.871 19.1967 193.981 2.99273 199.114C2.13664 199.384 1.27214 199.623 0 200Z" fill="#39546A"/>
<path d="M53.731 74.951C54.046 68.2202 56.5281 62.5018 60.9245 57.4599C64.5711 53.276 69.3706 52.5904 74.3606 52.9008C75.6347 52.9805 77.3138 54.6162 77.9211 55.9434C80.9008 62.4434 83.6648 69.0478 86.2875 75.7008C86.7288 76.8206 86.5214 78.6157 85.8876 79.6578C84.3096 82.2558 82.4886 84.7625 80.4329 87.0003C78.5614 89.0391 78.2496 90.7512 79.7343 93.1704C87.6445 106.049 98.4865 115.386 112.585 120.929C114.625 121.73 116.171 121.395 117.525 119.728C119.87 116.839 122.35 114.056 124.555 111.067C126.008 109.097 127.71 108.402 129.84 109.384C136.588 112.496 143.337 115.62 149.931 119.038C150.93 119.555 151.625 121.679 151.579 123.03C151.244 132.981 144.297 140.539 134.499 142.606C129.007 143.764 123.911 143.033 118.607 141.632C95.5385 135.544 78.19 121.785 64.8478 102.394C60.3983 95.926 56.0803 89.4409 54.5405 81.5734C54.1153 79.3973 53.9929 77.1608 53.731 74.951Z" fill="#39546A"/>
</svg>
